<svg width="60" height="60" viewBox="0 0 60 60" fill="none" xmlns="http://www.w3.org/2000/svg">
  <defs>
    <linearGradient id="missionGradient" x1="0%" y1="0%" x2="100%" y2="100%">
      <stop offset="0%" style="stop-color:#2684FF"/>
      <stop offset="100%" style="stop-color:#1a1a1a"/>
    </linearGradient>
  </defs>
  
  <!-- Grid background -->
  <rect x="5" y="5" width="50" height="50" fill="url(#missionGradient)" rx="6"/>
  
  <!-- Grid lines -->
  <line x1="5" y1="20" x2="55" y2="20" stroke="rgba(255,255,255,0.2)" stroke-width="1"/>
  <line x1="5" y1="35" x2="55" y2="35" stroke="rgba(255,255,255,0.2)" stroke-width="1"/>
  <line x1="20" y1="5" x2="20" y2="55" stroke="rgba(255,255,255,0.2)" stroke-width="1"/>
  <line x1="40" y1="5" x2="40" y2="55" stroke="rgba(255,255,255,0.2)" stroke-width="1"/>
  
  <!-- Target/Mission markers -->
  <circle cx="30" cy="20" r="6" fill="#FFD700"/>
  <circle cx="30" cy="20" r="3" fill="white"/>
  <circle cx="30" cy="20" r="1" fill="#FFD700"/>
  
  <!-- Mission containers -->
  <rect x="12" y="28" width="12" height="8" fill="rgba(255,255,255,0.9)" rx="2"/>
  <rect x="36" y="12" width="12" height="6" fill="rgba(255,255,255,0.9)" rx="2"/>
  
  <!-- Connection lines -->
  <path d="M24 32 L30 26" stroke="#FFD700" stroke-width="2" stroke-linecap="round"/>
  <path d="M36 15 L33 18" stroke="#FFD700" stroke-width="2" stroke-linecap="round"/>
  
  <!-- Planning elements -->
  <circle cx="15" cy="45" r="2" fill="#3C92FF"/>
  <circle cx="45" cy="45" r="2" fill="#3C92FF"/>
  <path d="M17 45 L43 45" stroke="#3C92FF" stroke-width="1" stroke-dasharray="2,2"/>
</svg>