<svg width="60" height="60" viewBox="0 0 60 60" fill="none" xmlns="http://www.w3.org/2000/svg">
  <defs>
    <linearGradient id="todoGradient" x1="0%" y1="0%" x2="100%" y2="100%">
      <stop offset="0%" style="stop-color:#3C92FF"/>
      <stop offset="100%" style="stop-color:#2684FF"/>
    </linearGradient>
  </defs>
  
  <!-- Calendar background -->
  <rect x="8" y="12" width="32" height="36" fill="url(#todoGradient)" rx="4"/>
  <rect x="10" y="16" width="28" height="30" fill="white" rx="2"/>
  
  <!-- Calendar header -->
  <rect x="10" y="16" width="28" height="8" fill="url(#todoGradient)" rx="2"/>
  
  <!-- Calendar rings -->
  <circle cx="16" cy="8" r="2" fill="none" stroke="#3C92FF" stroke-width="2"/>
  <circle cx="32" cy="8" r="2" fill="none" stroke="#3C92FF" stroke-width="2"/>
  
  <!-- Calendar grid -->
  <circle cx="16" cy="30" r="2" fill="#3C92FF"/>
  <circle cx="24" cy="30" r="2" fill="#FFD700"/>
  <circle cx="32" cy="30" r="2" fill="#3C92FF"/>
  <circle cx="20" cy="38" r="2" fill="#3C92FF"/>
  <circle cx="28" cy="38" r="2" fill="#3C92FF"/>
  
  <!-- Map pin -->
  <path d="M45 20 C48.5 20 51 22.5 51 26 C51 30 45 38 45 38 C45 38 39 30 39 26 C39 22.5 41.5 20 45 20 Z" fill="#FFD700"/>
  <circle cx="45" cy="26" r="3" fill="white"/>
  
  <!-- Connection line -->
  <path d="M38 32 L42 28" stroke="#3C92FF" stroke-width="2" stroke-linecap="round"/>
</svg>