<svg xmlns="http://www.w3.org/2000/svg" viewBox="0 0 410 404">
  <path fill="#646CFF" d="M399.641 59.525l-183.998 329.02c-3.799 6.793-13.559 6.833-17.415.073L10.52 59.556C6.437 52.19 12.48 43.266 20.782 44.62l184.313 30.025c1.129.184 2.291.185 3.421.002l170.35-27.77c8.322-1.357 14.37 7.593 10.775 12.648Z"/>
  <path fill="#82C0FF" d="M292.373 1.283l-136.26 22.299c-1.422.232-2.607 1.209-3.104 2.56L66.517 198.39c-2.28 6.196 3.743 12.053 10.122 9.832l55.516-19.355c6.838-2.385 13.235 4.606 10.252 11.194l-42.906 94.814c-2.981 6.587 3.412 13.577 10.248 11.194l32.855-11.459c6.836-2.383 13.233 4.608 10.252 11.194l-68.038 150.305c-3.875 8.561 7.726 15.624 14.367 8.716L279.463 296.24c5.041-5.235 1.67-13.825-5.451-13.825h-34.857c-7.499 0-10.779-9.418-4.904-14.105l112.156-89.292c5.875-4.687 2.597-14.104-4.901-14.105l-44.171-.006c-7.124-.001-10.523-8.789-5.097-13.186l94.668-76.835c7.469-6.063 3.181-18.088-6.433-18.103l-87.247-.182Z"/>
</svg>